<svg width="1997" height="692" viewBox="0 0 1997 692" fill="none" xmlns="http://www.w3.org/2000/svg">
<path d="M271.427 665.617C224.254 609.259 164.597 561.126 95.7442 523.872C84.4549 536.882 78.4339 551.523 69.2412 565.666C139.882 593.905 200.484 637.298 244.978 691.5C252.719 682.131 261.582 673.458 271.427 665.617Z" fill="#F27780"/>
<path d="M458.292 232.812C445.347 195.094 423.901 159.834 395.125 128.962C386.802 134.553 378.935 140.611 371.579 147.094C403.34 173.345 426.365 206.171 438.347 242.286C444.606 238.578 451.287 235.404 458.292 232.812Z" fill="#F27780"/>
<path d="M122.892 464.355C91.3445 435.485 53.4639 412.041 11.343 395.318C6.89531 403.51 3.10574 411.945 0 420.566C42.3361 432.066 80.3541 452.729 110.259 480.492C113.82 474.77 118.052 469.364 122.892 464.355Z" fill="#F1AD1D"/>
<path d="M579.194 280.589C560.311 244.678 549.833 206.029 548.337 166.767C559.022 166.596 569.709 167.035 580.323 168.082C576.024 205.426 583.439 243.068 601.827 277.235C594.167 277.699 586.583 278.823 579.194 280.589Z" fill="#F1AD1D"/>
<path d="M485.01 603.199C473.183 577.225 493.558 545.359 477.161 521.243C464.367 502.477 432.434 497.536 409.264 506.874C405.757 508.597 401.946 509.836 397.975 510.546C394.101 510.704 390.258 509.9 386.922 508.231C383.586 506.563 380.906 504.105 379.213 501.162C375.919 495.234 374.23 488.762 374.268 482.215C373.073 463.067 374.226 443.866 377.708 424.918C365.451 421.201 351.635 417.802 339.378 414.13C331.973 430.751 327.219 448.128 325.24 465.805C323.412 482.079 324.165 499.168 333.089 513.673C342.013 528.179 360.828 539.284 379.966 537.063C390.019 535.885 398.997 531.352 408.458 528.315C417.92 525.278 429.209 523.782 437.649 528.315C451.572 536.021 448.831 553.563 444.261 567.026C439.692 580.489 436.305 597.759 449.637 606.055C462.969 614.35 470.442 609.137 485.01 603.199Z" fill="#5F84BB"/>
<path d="M1793.87 548.486C1841.05 492.137 1900.71 444.006 1969.55 406.741C1980.84 419.796 1986.91 434.392 1996.11 448.535C1925.47 476.774 1864.86 520.167 1820.37 574.369C1812.6 565.009 1803.72 556.337 1793.87 548.486Z" fill="#F1AD1D"/>
<path d="M1294.24 299.174C1300.51 230.399 1322.53 163.299 1359.07 101.583C1376.65 107.884 1390.73 117.811 1407.45 126.016C1363.82 180.773 1338.03 244.241 1332.67 310.054C1320.32 305.361 1307.44 301.717 1294.24 299.174Z" fill="#F27780"/>
<path d="M1798.17 250.762C1811.08 213.033 1832.53 177.768 1861.33 146.913C1869.63 152.516 1877.48 158.573 1884.83 165.044C1853.1 191.31 1830.1 224.132 1818.11 260.236C1811.85 256.528 1805.17 253.355 1798.17 250.762Z" fill="#5F84BB"/>
<path d="M1277.89 115.001C1276.91 75.7359 1284.97 36.6829 1301.6 0C1311.52 3.31453 1321.17 7.1915 1330.47 11.6043C1309.44 44.6656 1299.07 81.8063 1300.42 119.307C1293.11 117.221 1285.56 115.778 1277.89 115.001Z" fill="#F1AD1D"/>
<path d="M1748.39 659.407C1782.23 632.334 1821.97 611.045 1865.42 596.717C1869.18 605.15 1872.29 613.781 1874.72 622.555C1831.56 631.677 1792.02 650.218 1760.05 676.315C1756.84 670.367 1752.93 664.703 1748.39 659.407Z" fill="#5F84BB"/>
<path d="M1474.11 546.31C1492.34 523.147 1480.67 488.289 1502.87 467.754C1520.24 451.798 1552.71 452.841 1572.76 466.168C1575.73 468.513 1579.12 470.441 1582.81 471.879C1586.56 472.714 1590.52 472.614 1594.2 471.593C1597.88 470.571 1601.13 468.671 1603.56 466.122C1608.28 460.931 1611.59 454.926 1613.24 448.535C1619.32 430.055 1623.14 411.099 1624.64 391.964C1637.59 390.604 1651.95 389.833 1664.85 388.473C1667.8 406.055 1667.97 423.891 1665.33 441.509C1662.91 457.737 1657.75 474.282 1645.33 486.838C1632.91 499.394 1611.68 506.738 1593.51 501.026C1584.05 498.08 1576.41 491.96 1567.97 487.427C1559.53 482.894 1548.89 479.268 1539.43 482.26C1523.89 487.246 1522.01 504.924 1522.98 518.841C1523.95 532.757 1522.98 550.299 1507.66 555.92C1492.34 561.541 1486.8 554.742 1474.11 546.31Z" fill="#F1AD1D"/>
</svg>
